<svg xmlns="http://www.w3.org/2000/svg" version="1.1" xmlns:xlink="http://www.w3.org/1999/xlink" xmlns:svgjs="http://svgjs.com/svgjs" width="1920" height="1080" preserveAspectRatio="none" viewBox="0 0 1920 1080"><g mask="url(&quot;#SvgjsMask3281&quot;)" fill="none"><rect width="1920" height="1080" x="0" y="0" fill="url(#SvgjsLinearGradient3282)"></rect><path d="M1625 874L1624 513" stroke-width="8" stroke="url(#SvgjsLinearGradient3283)" stroke-linecap="round" class="Down"></path><path d="M1754 711L1753 370" stroke-width="8" stroke="url(#SvgjsLinearGradient3284)" stroke-linecap="round" class="Down"></path><path d="M541 682L540 4" stroke-width="8" stroke="url(#SvgjsLinearGradient3285)" stroke-linecap="round" class="Down"></path><path d="M1823 340L1822 947" stroke-width="10" stroke="url(#SvgjsLinearGradient3286)" stroke-linecap="round" class="Up"></path><path d="M319 1030L318 1824" stroke-width="10" stroke="url(#SvgjsLinearGradient3287)" stroke-linecap="round" class="Up"></path><path d="M1187 1051L1186 319" stroke-width="10" stroke="url(#SvgjsLinearGradient3288)" stroke-linecap="round" class="Up"></path><path d="M1307 220L1306 -566" stroke-width="8" stroke="url(#SvgjsLinearGradient3286)" stroke-linecap="round" class="Up"></path><path d="M180 689L179 1244" stroke-width="6" stroke="url(#SvgjsLinearGradient3288)" stroke-linecap="round" class="Up"></path><path d="M1672 319L1671 625" stroke-width="6" stroke="url(#SvgjsLinearGradient3286)" stroke-linecap="round" class="Up"></path><path d="M628 1079L627 1717" stroke-width="6" stroke="url(#SvgjsLinearGradient3288)" stroke-linecap="round" class="Up"></path><path d="M1302 521L1301 831" stroke-width="8" stroke="url(#SvgjsLinearGradient3285)" stroke-linecap="round" class="Down"></path><path d="M644 806L643 1094" stroke-width="10" stroke="url(#SvgjsLinearGradient3286)" stroke-linecap="round" class="Up"></path><path d="M1391 470L1390 65" stroke-width="6" stroke="url(#SvgjsLinearGradient3289)" stroke-linecap="round" class="Down"></path><path d="M361 608L360 -102" stroke-width="8" stroke="url(#SvgjsLinearGradient3287)" stroke-linecap="round" class="Up"></path><path d="M1655 128L1654 -546" stroke-width="10" stroke="url(#SvgjsLinearGradient3289)" stroke-linecap="round" class="Down"></path><path d="M1367 518L1366 -156" stroke-width="6" stroke="url(#SvgjsLinearGradient3286)" stroke-linecap="round" class="Up"></path><path d="M585 374L584 -294" stroke-width="10" stroke="url(#SvgjsLinearGradient3290)" stroke-linecap="round" class="Up"></path><path d="M1419 677L1418 1063" stroke-width="10" stroke="url(#SvgjsLinearGradient3288)" stroke-linecap="round" class="Up"></path><path d="M1878 553L1877 1102" stroke-width="6" stroke="url(#SvgjsLinearGradient3285)" stroke-linecap="round" class="Down"></path><path d="M1262 747L1261 1469" stroke-width="6" stroke="url(#SvgjsLinearGradient3287)" stroke-linecap="round" class="Up"></path><path d="M1195 279L1194 -103" stroke-width="6" stroke="url(#SvgjsLinearGradient3289)" stroke-linecap="round" class="Down"></path><path d="M370 481L369 1157" stroke-width="8" stroke="url(#SvgjsLinearGradient3283)" stroke-linecap="round" class="Down"></path><path d="M428 585L427 907" stroke-width="6" stroke="url(#SvgjsLinearGradient3283)" stroke-linecap="round" class="Down"></path><path d="M193 468L192 -159" stroke-width="6" stroke="url(#SvgjsLinearGradient3283)" stroke-linecap="round" class="Down"></path><path d="M855 317L854 886" stroke-width="6" stroke="url(#SvgjsLinearGradient3288)" stroke-linecap="round" class="Up"></path><path d="M309 831L308 1198" stroke-width="10" stroke="url(#SvgjsLinearGradient3288)" stroke-linecap="round" class="Up"></path><path d="M473 398L472 1031" stroke-width="10" stroke="url(#SvgjsLinearGradient3290)" stroke-linecap="round" class="Up"></path><path d="M341 185L340 629" stroke-width="8" stroke="url(#SvgjsLinearGradient3283)" stroke-linecap="round" class="Down"></path><path d="M90 984L89 655" stroke-width="6" stroke="url(#SvgjsLinearGradient3283)" stroke-linecap="round" class="Down"></path><path d="M249 900L248 345" stroke-width="10" stroke="url(#SvgjsLinearGradient3289)" stroke-linecap="round" class="Down"></path><path d="M867 430L866 54" stroke-width="10" stroke="url(#SvgjsLinearGradient3287)" stroke-linecap="round" class="Up"></path><path d="M237 144L236 -185" stroke-width="6" stroke="url(#SvgjsLinearGradient3290)" stroke-linecap="round" class="Up"></path><path d="M169 916L168 1405" stroke-width="10" stroke="url(#SvgjsLinearGradient3284)" stroke-linecap="round" class="Down"></path><path d="M528 722L527 45" stroke-width="8" stroke="url(#SvgjsLinearGradient3288)" stroke-linecap="round" class="Up"></path><path d="M273 192L272 -531" stroke-width="10" stroke="url(#SvgjsLinearGradient3284)" stroke-linecap="round" class="Down"></path><path d="M1496 608L1495 1386" stroke-width="6" stroke="url(#SvgjsLinearGradient3283)" stroke-linecap="round" class="Down"></path><path d="M1904 97L1903 -542" stroke-width="8" stroke="url(#SvgjsLinearGradient3286)" stroke-linecap="round" class="Up"></path><path d="M718 607L717 1117" stroke-width="10" stroke="url(#SvgjsLinearGradient3287)" stroke-linecap="round" class="Up"></path><path d="M1559 92L1558 557" stroke-width="10" stroke="url(#SvgjsLinearGradient3287)" stroke-linecap="round" class="Up"></path><path d="M1494 617L1493 -135" stroke-width="6" stroke="url(#SvgjsLinearGradient3287)" stroke-linecap="round" class="Up"></path><path d="M883 607L882 1140" stroke-width="10" stroke="url(#SvgjsLinearGradient3283)" stroke-linecap="round" class="Down"></path><path d="M1612 790L1611 95" stroke-width="10" stroke="url(#SvgjsLinearGradient3285)" stroke-linecap="round" class="Down"></path><path d="M1053 372L1052 758" stroke-width="8" stroke="url(#SvgjsLinearGradient3287)" stroke-linecap="round" class="Up"></path><path d="M1785 400L1784 79" stroke-width="8" stroke="url(#SvgjsLinearGradient3287)" stroke-linecap="round" class="Up"></path><path d="M1322 1027L1321 352" stroke-width="10" stroke="url(#SvgjsLinearGradient3290)" stroke-linecap="round" class="Up"></path><path d="M639 879L638 75" stroke-width="8" stroke="url(#SvgjsLinearGradient3287)" stroke-linecap="round" class="Up"></path><path d="M1875 535L1874 1039" stroke-width="8" stroke="url(#SvgjsLinearGradient3288)" stroke-linecap="round" class="Up"></path><path d="M362 215L361 -503" stroke-width="10" stroke="url(#SvgjsLinearGradient3289)" stroke-linecap="round" class="Down"></path></g><defs><mask id="SvgjsMask3281"><rect width="1920" height="1080" fill="#ffffff"></rect></mask><linearGradient x1="89.06%" y1="119.44%" x2="10.94%" y2="-19.44%" gradientUnits="userSpaceOnUse" id="SvgjsLinearGradient3282"><stop stop-color="rgba(19, 19, 19, 1)" offset="0.18"></stop><stop stop-color="rgba(26, 23, 31, 1)" offset="1"></stop></linearGradient><linearGradient x1="0%" y1="0%" x2="0%" y2="100%" id="SvgjsLinearGradient3283"><stop stop-color="rgba(204, 204, 204, 0)" offset="0"></stop><stop stop-color="rgba(204, 204, 204, 0.18)" offset="1"></stop></linearGradient><linearGradient x1="0%" y1="0%" x2="0%" y2="100%" id="SvgjsLinearGradient3284"><stop stop-color="rgba(215, 205, 204, 0)" offset="0"></stop><stop stop-color="rgba(215, 205, 204, 0.18)" offset="1"></stop></linearGradient><linearGradient x1="0%" y1="0%" x2="0%" y2="100%" id="SvgjsLinearGradient3285"><stop stop-color="rgba(255, 255, 255, 0)" offset="0"></stop><stop stop-color="rgba(255, 255, 255, 0.12)" offset="1"></stop></linearGradient><linearGradient x1="0%" y1="100%" x2="0%" y2="0%" id="SvgjsLinearGradient3286"><stop stop-color="rgba(221, 221, 221, 0)" offset="0"></stop><stop stop-color="rgba(221, 221, 221, 0.14)" offset="1"></stop></linearGradient><linearGradient x1="0%" y1="100%" x2="0%" y2="0%" id="SvgjsLinearGradient3287"><stop stop-color="rgba(255, 255, 255, 0)" offset="0"></stop><stop stop-color="rgba(255, 255, 255, 0.12)" offset="1"></stop></linearGradient><linearGradient x1="0%" y1="100%" x2="0%" y2="0%" id="SvgjsLinearGradient3288"><stop stop-color="rgba(204, 204, 204, 0)" offset="0"></stop><stop stop-color="rgba(204, 204, 204, 0.18)" offset="1"></stop></linearGradient><linearGradient x1="0%" y1="0%" x2="0%" y2="100%" id="SvgjsLinearGradient3289"><stop stop-color="rgba(221, 221, 221, 0)" offset="0"></stop><stop stop-color="rgba(221, 221, 221, 0.14)" offset="1"></stop></linearGradient><linearGradient x1="0%" y1="100%" x2="0%" y2="0%" id="SvgjsLinearGradient3290"><stop stop-color="rgba(215, 205, 204, 0)" offset="0"></stop><stop stop-color="rgba(215, 205, 204, 0.18)" offset="1"></stop></linearGradient></defs></svg>