<svg xmlns="http://www.w3.org/2000/svg" version="1.1" xmlns:xlink="http://www.w3.org/1999/xlink" xmlns:svgjs="http://svgjs.com/svgjs" width="1080" height="1920" preserveAspectRatio="none" viewBox="0 0 1080 1920"><g mask="url(&quot;#SvgjsMask1109&quot;)" fill="none"><rect width="1080" height="1920" x="0" y="0" fill="url(#SvgjsLinearGradient1110)"></rect><path d="M576 1258L575 129" stroke-width="6" stroke="url(#SvgjsLinearGradient1111)" stroke-linecap="round" class="Up"></path><path d="M352 245L351 -1051" stroke-width="8" stroke="url(#SvgjsLinearGradient1112)" stroke-linecap="round" class="Down"></path><path d="M545 931L544 -64" stroke-width="6" stroke="url(#SvgjsLinearGradient1113)" stroke-linecap="round" class="Up"></path><path d="M364 1309L363 20" stroke-width="10" stroke="url(#SvgjsLinearGradient1114)" stroke-linecap="round" class="Down"></path><path d="M394 163L393 -598" stroke-width="8" stroke="url(#SvgjsLinearGradient1115)" stroke-linecap="round" class="Up"></path><path d="M951 1876L950 881" stroke-width="8" stroke="url(#SvgjsLinearGradient1116)" stroke-linecap="round" class="Down"></path><path d="M850 509L849 -56" stroke-width="10" stroke="url(#SvgjsLinearGradient1117)" stroke-linecap="round" class="Down"></path><path d="M34 1683L33 665" stroke-width="8" stroke="url(#SvgjsLinearGradient1113)" stroke-linecap="round" class="Up"></path><path d="M504 1454L503 2570" stroke-width="10" stroke="url(#SvgjsLinearGradient1111)" stroke-linecap="round" class="Up"></path><path d="M515 381L514 1109" stroke-width="8" stroke="url(#SvgjsLinearGradient1115)" stroke-linecap="round" class="Up"></path><path d="M1078 79L1077 -1353" stroke-width="10" stroke="url(#SvgjsLinearGradient1115)" stroke-linecap="round" class="Up"></path><path d="M1054 1389L1053 1956" stroke-width="6" stroke="url(#SvgjsLinearGradient1115)" stroke-linecap="round" class="Up"></path><path d="M409 74L408 -634" stroke-width="8" stroke="url(#SvgjsLinearGradient1116)" stroke-linecap="round" class="Down"></path><path d="M822 1675L821 2723" stroke-width="8" stroke="url(#SvgjsLinearGradient1116)" stroke-linecap="round" class="Down"></path><path d="M1030 245L1029 1054" stroke-width="6" stroke="url(#SvgjsLinearGradient1116)" stroke-linecap="round" class="Down"></path><path d="M825 1672L824 422" stroke-width="6" stroke="url(#SvgjsLinearGradient1117)" stroke-linecap="round" class="Down"></path><path d="M751 710L750 -277" stroke-width="10" stroke="url(#SvgjsLinearGradient1112)" stroke-linecap="round" class="Down"></path><path d="M124 560L123 -736" stroke-width="6" stroke="url(#SvgjsLinearGradient1118)" stroke-linecap="round" class="Up"></path><path d="M976 529L975 1383" stroke-width="6" stroke="url(#SvgjsLinearGradient1112)" stroke-linecap="round" class="Down"></path><path d="M16 1039L15 1611" stroke-width="6" stroke="url(#SvgjsLinearGradient1112)" stroke-linecap="round" class="Down"></path><path d="M970 1061L969 1936" stroke-width="6" stroke="url(#SvgjsLinearGradient1115)" stroke-linecap="round" class="Up"></path><path d="M882 1364L881 26" stroke-width="6" stroke="url(#SvgjsLinearGradient1113)" stroke-linecap="round" class="Up"></path><path d="M45 1356L44 2278" stroke-width="6" stroke="url(#SvgjsLinearGradient1113)" stroke-linecap="round" class="Up"></path><path d="M370 1036L369 2412" stroke-width="8" stroke="url(#SvgjsLinearGradient1116)" stroke-linecap="round" class="Down"></path><path d="M663 1243L662 2451" stroke-width="6" stroke="url(#SvgjsLinearGradient1111)" stroke-linecap="round" class="Up"></path><path d="M938 943L937 1920" stroke-width="6" stroke="url(#SvgjsLinearGradient1117)" stroke-linecap="round" class="Down"></path><path d="M979 917L978 -292" stroke-width="8" stroke="url(#SvgjsLinearGradient1117)" stroke-linecap="round" class="Down"></path></g><defs><mask id="SvgjsMask1109"><rect width="1080" height="1920" fill="#ffffff"></rect></mask><linearGradient x1="119.44%" y1="89.06%" x2="-19.44%" y2="10.94%" gradientUnits="userSpaceOnUse" id="SvgjsLinearGradient1110"><stop stop-color="rgba(19, 19, 19, 1)" offset="0.18"></stop><stop stop-color="rgba(26, 23, 31, 1)" offset="1"></stop></linearGradient><linearGradient x1="0%" y1="100%" x2="0%" y2="0%" id="SvgjsLinearGradient1111"><stop stop-color="rgba(215, 205, 204, 0)" offset="0"></stop><stop stop-color="rgba(215, 205, 204, 0.18)" offset="1"></stop></linearGradient><linearGradient x1="0%" y1="0%" x2="0%" y2="100%" id="SvgjsLinearGradient1112"><stop stop-color="rgba(221, 221, 221, 0)" offset="0"></stop><stop stop-color="rgba(221, 221, 221, 0.14)" offset="1"></stop></linearGradient><linearGradient x1="0%" y1="100%" x2="0%" y2="0%" id="SvgjsLinearGradient1113"><stop stop-color="rgba(204, 204, 204, 0)" offset="0"></stop><stop stop-color="rgba(204, 204, 204, 0.18)" offset="1"></stop></linearGradient><linearGradient x1="0%" y1="0%" x2="0%" y2="100%" id="SvgjsLinearGradient1114"><stop stop-color="rgba(215, 205, 204, 0)" offset="0"></stop><stop stop-color="rgba(215, 205, 204, 0.18)" offset="1"></stop></linearGradient><linearGradient x1="0%" y1="100%" x2="0%" y2="0%" id="SvgjsLinearGradient1115"><stop stop-color="rgba(221, 221, 221, 0)" offset="0"></stop><stop stop-color="rgba(221, 221, 221, 0.14)" offset="1"></stop></linearGradient><linearGradient x1="0%" y1="0%" x2="0%" y2="100%" id="SvgjsLinearGradient1116"><stop stop-color="rgba(255, 255, 255, 0)" offset="0"></stop><stop stop-color="rgba(255, 255, 255, 0.12)" offset="1"></stop></linearGradient><linearGradient x1="0%" y1="0%" x2="0%" y2="100%" id="SvgjsLinearGradient1117"><stop stop-color="rgba(204, 204, 204, 0)" offset="0"></stop><stop stop-color="rgba(204, 204, 204, 0.18)" offset="1"></stop></linearGradient><linearGradient x1="0%" y1="100%" x2="0%" y2="0%" id="SvgjsLinearGradient1118"><stop stop-color="rgba(255, 255, 255, 0)" offset="0"></stop><stop stop-color="rgba(255, 255, 255, 0.12)" offset="1"></stop></linearGradient></defs></svg>