<svg xmlns="http://www.w3.org/2000/svg" version="1.1" xmlns:xlink="http://www.w3.org/1999/xlink" xmlns:svgjs="http://svgjs.com/svgjs" width="1080" height="1920" preserveAspectRatio="none" viewBox="0 0 1080 1920"><g mask="url(&quot;#SvgjsMask4503&quot;)" fill="none"><rect width="1080" height="1920" x="0" y="0" fill="url(#SvgjsLinearGradient4504)"></rect><path d="M805 1284L804 2650" stroke-width="8" stroke="url(#SvgjsLinearGradient4505)" stroke-linecap="round" class="Up"></path><path d="M1054 1437L1053 2140" stroke-width="10" stroke="url(#SvgjsLinearGradient4505)" stroke-linecap="round" class="Up"></path><path d="M330 10L329 -1180" stroke-width="6" stroke="url(#SvgjsLinearGradient4506)" stroke-linecap="round" class="Down"></path><path d="M904 631L903 1143" stroke-width="10" stroke="url(#SvgjsLinearGradient4505)" stroke-linecap="round" class="Up"></path><path d="M742 779L741 1712" stroke-width="6" stroke="url(#SvgjsLinearGradient4507)" stroke-linecap="round" class="Down"></path><path d="M113 1582L112 2961" stroke-width="10" stroke="url(#SvgjsLinearGradient4508)" stroke-linecap="round" class="Up"></path><path d="M108 968L107 2045" stroke-width="10" stroke="url(#SvgjsLinearGradient4508)" stroke-linecap="round" class="Up"></path><path d="M984 556L983 1547" stroke-width="6" stroke="url(#SvgjsLinearGradient4509)" stroke-linecap="round" class="Down"></path><path d="M442 1774L441 2436" stroke-width="8" stroke="url(#SvgjsLinearGradient4507)" stroke-linecap="round" class="Down"></path><path d="M439 330L438 874" stroke-width="6" stroke="url(#SvgjsLinearGradient4508)" stroke-linecap="round" class="Up"></path><path d="M642 444L641 1067" stroke-width="6" stroke="url(#SvgjsLinearGradient4510)" stroke-linecap="round" class="Up"></path><path d="M496 847L495 -386" stroke-width="8" stroke="url(#SvgjsLinearGradient4506)" stroke-linecap="round" class="Down"></path><path d="M439 265L438 -901" stroke-width="10" stroke="url(#SvgjsLinearGradient4510)" stroke-linecap="round" class="Up"></path><path d="M565 230L564 -1071" stroke-width="8" stroke="url(#SvgjsLinearGradient4508)" stroke-linecap="round" class="Up"></path><path d="M528 1167L527 649" stroke-width="6" stroke="url(#SvgjsLinearGradient4505)" stroke-linecap="round" class="Up"></path><path d="M32 570L31 -388" stroke-width="10" stroke="url(#SvgjsLinearGradient4506)" stroke-linecap="round" class="Down"></path><path d="M211 1556L210 167" stroke-width="6" stroke="url(#SvgjsLinearGradient4508)" stroke-linecap="round" class="Up"></path><path d="M1051 399L1050 -732" stroke-width="10" stroke="url(#SvgjsLinearGradient4508)" stroke-linecap="round" class="Up"></path><path d="M722 833L721 2053" stroke-width="8" stroke="url(#SvgjsLinearGradient4510)" stroke-linecap="round" class="Up"></path><path d="M272 1367L271 164" stroke-width="8" stroke="url(#SvgjsLinearGradient4508)" stroke-linecap="round" class="Up"></path><path d="M490 931L489 2298" stroke-width="8" stroke="url(#SvgjsLinearGradient4510)" stroke-linecap="round" class="Up"></path><path d="M647 76L646 -1240" stroke-width="10" stroke="url(#SvgjsLinearGradient4505)" stroke-linecap="round" class="Up"></path><path d="M346 1414L345 2803" stroke-width="8" stroke="url(#SvgjsLinearGradient4507)" stroke-linecap="round" class="Down"></path><path d="M922 1510L921 282" stroke-width="6" stroke="url(#SvgjsLinearGradient4510)" stroke-linecap="round" class="Up"></path><path d="M691 1091L690 2206" stroke-width="6" stroke="url(#SvgjsLinearGradient4508)" stroke-linecap="round" class="Up"></path><path d="M213 1864L212 856" stroke-width="10" stroke="url(#SvgjsLinearGradient4505)" stroke-linecap="round" class="Up"></path><path d="M744 736L743 -180" stroke-width="6" stroke="url(#SvgjsLinearGradient4507)" stroke-linecap="round" class="Down"></path></g><defs><mask id="SvgjsMask4503"><rect width="1080" height="1920" fill="#ffffff"></rect></mask><linearGradient x1="119.44%" y1="89.06%" x2="-19.44%" y2="10.94%" gradientUnits="userSpaceOnUse" id="SvgjsLinearGradient4504"><stop stop-color="rgba(233, 233, 233, 1)" offset="0.18"></stop><stop stop-color="rgba(255, 255, 255, 1)" offset="0.95"></stop></linearGradient><linearGradient x1="0%" y1="100%" x2="0%" y2="0%" id="SvgjsLinearGradient4505"><stop stop-color="rgba(0, 0, 0, 0)" offset="0"></stop><stop stop-color="rgba(0, 0, 0, 0.11)" offset="1"></stop></linearGradient><linearGradient x1="0%" y1="0%" x2="0%" y2="100%" id="SvgjsLinearGradient4506"><stop stop-color="rgba(0, 0, 0, 0)" offset="0"></stop><stop stop-color="rgba(0, 0, 0, 0.1)" offset="1"></stop></linearGradient><linearGradient x1="0%" y1="0%" x2="0%" y2="100%" id="SvgjsLinearGradient4507"><stop stop-color="rgba(0, 0, 0, 0)" offset="0"></stop><stop stop-color="rgba(0, 0, 0, 0.15)" offset="1"></stop></linearGradient><linearGradient x1="0%" y1="100%" x2="0%" y2="0%" id="SvgjsLinearGradient4508"><stop stop-color="rgba(0, 0, 0, 0)" offset="0"></stop><stop stop-color="rgba(0, 0, 0, 0.15)" offset="1"></stop></linearGradient><linearGradient x1="0%" y1="0%" x2="0%" y2="100%" id="SvgjsLinearGradient4509"><stop stop-color="rgba(0, 0, 0, 0)" offset="0"></stop><stop stop-color="rgba(0, 0, 0, 0.11)" offset="1"></stop></linearGradient><linearGradient x1="0%" y1="100%" x2="0%" y2="0%" id="SvgjsLinearGradient4510"><stop stop-color="rgba(0, 0, 0, 0)" offset="0"></stop><stop stop-color="rgba(0, 0, 0, 0.1)" offset="1"></stop></linearGradient></defs></svg>