<svg xmlns="http://www.w3.org/2000/svg" version="1.1" xmlns:xlink="http://www.w3.org/1999/xlink" xmlns:svgjs="http://svgjs.com/svgjs" width="1920" height="1080" preserveAspectRatio="none" viewBox="0 0 1920 1080"><g mask="url(&quot;#SvgjsMask4435&quot;)" fill="none"><rect width="1920" height="1080" x="0" y="0" fill="url(#SvgjsLinearGradient4436)"></rect><path d="M1590 125L1589 487" stroke-width="8" stroke="url(#SvgjsLinearGradient4437)" stroke-linecap="round" class="Down"></path><path d="M128 988L127 1593" stroke-width="10" stroke="url(#SvgjsLinearGradient4438)" stroke-linecap="round" class="Up"></path><path d="M518 992L517 1629" stroke-width="8" stroke="url(#SvgjsLinearGradient4437)" stroke-linecap="round" class="Down"></path><path d="M861 938L860 591" stroke-width="8" stroke="url(#SvgjsLinearGradient4439)" stroke-linecap="round" class="Up"></path><path d="M176 535L175 -35" stroke-width="6" stroke="url(#SvgjsLinearGradient4438)" stroke-linecap="round" class="Up"></path><path d="M387 257L386 -378" stroke-width="6" stroke="url(#SvgjsLinearGradient4440)" stroke-linecap="round" class="Down"></path><path d="M1065 959L1064 1532" stroke-width="10" stroke="url(#SvgjsLinearGradient4440)" stroke-linecap="round" class="Down"></path><path d="M343 10L342 685" stroke-width="8" stroke="url(#SvgjsLinearGradient4441)" stroke-linecap="round" class="Up"></path><path d="M344 546L343 1217" stroke-width="8" stroke="url(#SvgjsLinearGradient4442)" stroke-linecap="round" class="Down"></path><path d="M1825 578L1824 107" stroke-width="6" stroke="url(#SvgjsLinearGradient4437)" stroke-linecap="round" class="Down"></path><path d="M1583 750L1582 1185" stroke-width="8" stroke="url(#SvgjsLinearGradient4441)" stroke-linecap="round" class="Up"></path><path d="M1812 646L1811 1025" stroke-width="10" stroke="url(#SvgjsLinearGradient4442)" stroke-linecap="round" class="Down"></path><path d="M229 105L228 -251" stroke-width="6" stroke="url(#SvgjsLinearGradient4439)" stroke-linecap="round" class="Up"></path><path d="M1592 1060L1591 699" stroke-width="6" stroke="url(#SvgjsLinearGradient4442)" stroke-linecap="round" class="Down"></path><path d="M572 969L571 268" stroke-width="6" stroke="url(#SvgjsLinearGradient4442)" stroke-linecap="round" class="Down"></path><path d="M1340 913L1339 493" stroke-width="6" stroke="url(#SvgjsLinearGradient4438)" stroke-linecap="round" class="Up"></path><path d="M1400 36L1399 629" stroke-width="10" stroke="url(#SvgjsLinearGradient4439)" stroke-linecap="round" class="Up"></path><path d="M1560 962L1559 196" stroke-width="6" stroke="url(#SvgjsLinearGradient4437)" stroke-linecap="round" class="Down"></path><path d="M1002 1008L1001 672" stroke-width="8" stroke="url(#SvgjsLinearGradient4442)" stroke-linecap="round" class="Down"></path><path d="M854 995L853 1266" stroke-width="6" stroke="url(#SvgjsLinearGradient4437)" stroke-linecap="round" class="Down"></path><path d="M1008 48L1007 -689" stroke-width="8" stroke="url(#SvgjsLinearGradient4442)" stroke-linecap="round" class="Down"></path><path d="M982 523L981 870" stroke-width="8" stroke="url(#SvgjsLinearGradient4441)" stroke-linecap="round" class="Up"></path><path d="M1814 902L1813 131" stroke-width="6" stroke="url(#SvgjsLinearGradient4441)" stroke-linecap="round" class="Up"></path><path d="M58 252L57 -319" stroke-width="8" stroke="url(#SvgjsLinearGradient4438)" stroke-linecap="round" class="Up"></path><path d="M1727 743L1726 1431" stroke-width="6" stroke="url(#SvgjsLinearGradient4442)" stroke-linecap="round" class="Down"></path><path d="M1258 1016L1257 478" stroke-width="10" stroke="url(#SvgjsLinearGradient4440)" stroke-linecap="round" class="Down"></path><path d="M933 361L932 -277" stroke-width="8" stroke="url(#SvgjsLinearGradient4438)" stroke-linecap="round" class="Up"></path><path d="M1844 1002L1843 1448" stroke-width="8" stroke="url(#SvgjsLinearGradient4438)" stroke-linecap="round" class="Up"></path><path d="M992 518L991 122" stroke-width="8" stroke="url(#SvgjsLinearGradient4441)" stroke-linecap="round" class="Up"></path><path d="M1120 218L1119 761" stroke-width="10" stroke="url(#SvgjsLinearGradient4442)" stroke-linecap="round" class="Down"></path><path d="M936 621L935 221" stroke-width="10" stroke="url(#SvgjsLinearGradient4437)" stroke-linecap="round" class="Down"></path><path d="M1397 833L1396 1570" stroke-width="10" stroke="url(#SvgjsLinearGradient4437)" stroke-linecap="round" class="Down"></path><path d="M768 105L767 -256" stroke-width="8" stroke="url(#SvgjsLinearGradient4437)" stroke-linecap="round" class="Down"></path><path d="M591 877L590 527" stroke-width="8" stroke="url(#SvgjsLinearGradient4439)" stroke-linecap="round" class="Up"></path><path d="M667 381L666 884" stroke-width="6" stroke="url(#SvgjsLinearGradient4441)" stroke-linecap="round" class="Up"></path><path d="M588 271L587 -139" stroke-width="8" stroke="url(#SvgjsLinearGradient4441)" stroke-linecap="round" class="Up"></path><path d="M335 794L334 1167" stroke-width="10" stroke="url(#SvgjsLinearGradient4440)" stroke-linecap="round" class="Down"></path><path d="M1075 199L1074 -496" stroke-width="8" stroke="url(#SvgjsLinearGradient4442)" stroke-linecap="round" class="Down"></path><path d="M633 88L632 848" stroke-width="6" stroke="url(#SvgjsLinearGradient4440)" stroke-linecap="round" class="Down"></path><path d="M121 672L120 82" stroke-width="8" stroke="url(#SvgjsLinearGradient4438)" stroke-linecap="round" class="Up"></path><path d="M1920 254L1919 821" stroke-width="6" stroke="url(#SvgjsLinearGradient4442)" stroke-linecap="round" class="Down"></path><path d="M379 545L378 119" stroke-width="8" stroke="url(#SvgjsLinearGradient4441)" stroke-linecap="round" class="Up"></path><path d="M1158 15L1157 559" stroke-width="6" stroke="url(#SvgjsLinearGradient4437)" stroke-linecap="round" class="Down"></path><path d="M1514 627L1513 1002" stroke-width="6" stroke="url(#SvgjsLinearGradient4437)" stroke-linecap="round" class="Down"></path><path d="M1360 101L1359 520" stroke-width="6" stroke="url(#SvgjsLinearGradient4442)" stroke-linecap="round" class="Down"></path><path d="M271 1061L270 311" stroke-width="10" stroke="url(#SvgjsLinearGradient4438)" stroke-linecap="round" class="Up"></path><path d="M1698 914L1697 1685" stroke-width="10" stroke="url(#SvgjsLinearGradient4440)" stroke-linecap="round" class="Down"></path><path d="M435 922L434 1314" stroke-width="8" stroke="url(#SvgjsLinearGradient4441)" stroke-linecap="round" class="Up"></path></g><defs><mask id="SvgjsMask4435"><rect width="1920" height="1080" fill="#ffffff"></rect></mask><linearGradient x1="89.06%" y1="119.44%" x2="10.94%" y2="-19.44%" gradientUnits="userSpaceOnUse" id="SvgjsLinearGradient4436"><stop stop-color="rgba(233, 233, 233, 1)" offset="0.18"></stop><stop stop-color="rgba(255, 255, 255, 1)" offset="0.95"></stop></linearGradient><linearGradient x1="0%" y1="0%" x2="0%" y2="100%" id="SvgjsLinearGradient4437"><stop stop-color="rgba(0, 0, 0, 0)" offset="0"></stop><stop stop-color="rgba(0, 0, 0, 0.11)" offset="1"></stop></linearGradient><linearGradient x1="0%" y1="100%" x2="0%" y2="0%" id="SvgjsLinearGradient4438"><stop stop-color="rgba(0, 0, 0, 0)" offset="0"></stop><stop stop-color="rgba(0, 0, 0, 0.1)" offset="1"></stop></linearGradient><linearGradient x1="0%" y1="100%" x2="0%" y2="0%" id="SvgjsLinearGradient4439"><stop stop-color="rgba(0, 0, 0, 0)" offset="0"></stop><stop stop-color="rgba(0, 0, 0, 0.11)" offset="1"></stop></linearGradient><linearGradient x1="0%" y1="0%" x2="0%" y2="100%" id="SvgjsLinearGradient4440"><stop stop-color="rgba(0, 0, 0, 0)" offset="0"></stop><stop stop-color="rgba(0, 0, 0, 0.1)" offset="1"></stop></linearGradient><linearGradient x1="0%" y1="100%" x2="0%" y2="0%" id="SvgjsLinearGradient4441"><stop stop-color="rgba(0, 0, 0, 0)" offset="0"></stop><stop stop-color="rgba(0, 0, 0, 0.15)" offset="1"></stop></linearGradient><linearGradient x1="0%" y1="0%" x2="0%" y2="100%" id="SvgjsLinearGradient4442"><stop stop-color="rgba(0, 0, 0, 0)" offset="0"></stop><stop stop-color="rgba(0, 0, 0, 0.15)" offset="1"></stop></linearGradient></defs></svg>